<svg xmlns="http://www.w3.org/2000/svg"  viewBox="0 0 24 24" width="100px" height="100px"><path d="M 9.5 2 C 4.806 2 1 5.358 1 9.5 C 1 11.341 1.7539531 13.024078 3.0019531 14.330078 L 1.8789062 16.953125 C 1.5969062 17.611125 2.3135469 18.250531 2.9355469 17.894531 L 5.8144531 16.25 C 6.903098 16.714332 8.1173926 16.98108 9.4042969 16.994141 C 10.364061 19.32647 12.950583 21 16 21 C 16.954 21 17.864359 20.835062 18.693359 20.539062 L 21.066406 21.894531 C 21.189406 21.964531 21.317453 21.996094 21.439453 21.996094 C 21.934453 21.996094 22.349047 21.481125 22.123047 20.953125 L 21.263672 18.947266 C 22.340672 17.892266 23 16.513 23 15 C 23 12.27785 20.884204 9.9821815 17.986328 9.2480469 C 17.834587 5.2235789 14.097711 2 9.5 2 z M 6.7480469 6 C 7.1610469 6 7.4960938 6.3350469 7.4960938 6.7480469 C 7.4960938 7.1610469 7.1610469 7.4960937 6.7480469 7.4960938 C 6.3350469 7.4960938 6 7.1610469 6 6.7480469 C 6 6.3350469 6.3350469 6 6.7480469 6 z M 12.255859 6 C 12.668859 6 13.003906 6.3350469 13.003906 6.7480469 C 13.003906 7.1610469 12.668859 7.4960938 12.255859 7.4960938 C 11.842859 7.4960938 11.507812 7.1610469 11.507812 6.7480469 C 11.507812 6.3350469 11.842859 6 12.255859 6 z M 16 10 C 19.308 10 22 12.243 22 15 C 22 16.178 21.490453 17.326422 20.564453 18.232422 C 20.269453 18.521422 20.18175 18.961797 20.34375 19.341797 L 20.90625 20.650391 L 19.189453 19.669922 C 19.036453 19.582922 18.865359 19.537109 18.693359 19.537109 C 18.580359 19.537109 18.465469 19.556703 18.355469 19.595703 C 17.607469 19.863703 16.815 20 16 20 C 12.692 20 10 17.757 10 15 C 10 12.243 12.692 10 16 10 z M 13.748047 13 A 0.748 0.748 0 1 0 13.748047 14.496094 A 0.748 0.748 0 1 0 13.748047 13 z M 18.253906 13 A 0.748 0.748 0 1 0 18.253906 14.496094 A 0.748 0.748 0 1 0 18.253906 13 z"/></svg>