<svg width="620" height="519" xmlns="http://www.w3.org/2000/svg" version="1.1">
 <g>
  <title>Layer 1</title>
  <path fill="#2B5CAA" id="svg_1"/>
  <path d="m97,232c15.51,0 29.80049,-0.271 45.78049,-0.271c0.6305,3.37099 1.03701,4.8615 2.21951,9.271c21.81021,60.95511 22.77433,69.27881 29.96748,73.76152c1.84513,2.10714 57.85751,0.14151 69.03252,-0.76152c-2,-21.99 -2,-22.98 -2,-24c-68.1744,0.46298 -69.48234,0.47187 -70.82991,0.48102c-3.17009,-0.48102 -3.17009,-0.48102 -5.02438,-2.30628c-11.14571,-27.37228 -11.14571,-27.37228 -11.14571,-33.17474c157.2052,-0.09055 162.59306,-0.10075 168,0c-6.73489,32.87039 -6.87039,32.87039 -8,34c-28.26436,0.03778 -32.63216,0.0205 -37,0c2.01487,17.07762 2.67006,17.05325 4,26c17.56886,-0.11256 23.74686,0.33883 30,1c5.16527,25.79898 6.07875,29.89954 7,34c-168.36551,2.73133 -169.30963,2.74976 -170.28237,2.76875c-8.24916,-0.10342 -13.51874,-3.49251 -19.20152,-9.3127c-4.86354,-6.76905 -7.52661,-13.17318 -9.64111,-21.20605c-17.91891,-70.17347 -20.33937,-80.10747 -22.875,-90.25z" fill="#03C1D4" id="svg_2"/>
  <path d="m325.39611,73.01105c6.59995,0.02356 12.48384,0.19352 18.5288,0.12132c4.53801,6.98449 3.88782,12.57086 3.70547,18.45504c-0.53949,5.52974 -2.17931,9.02807 -5.72319,13.34485c-7.45635,2.6394 -22.75227,2.54348 -30.77791,2.59911c-73.0833,0.61651 -79.01082,-0.61901 -84.48429,0.92663c-6.67159,5.22035 34.75818,135.43241 35.62602,140.81301c-34.12748,0.13019 -33.99198,0.13019 -35,0c-1.19182,-2.87175 -1.36836,-4.16707 -2.78907,-7.60938c-28.94372,-110.11333 -33.74399,-129.33334 -41.03067,-130.53134c-160.64439,1.44812 -160.64439,1.44812 -164.40536,-1.75339c-4.73754,-6.84027 -6.60936,-14.66405 -5.38037,-22.89105c1.05044,-3.84257 1.5892,-8.43139 5.60547,-10.21484l306.1251,-3.25996z" fill="#00C1D4" id="svg_3"/>
  <path d="m253.35088,190.64912l205,0c-10.91092,17.80013 -8.99796,15.29669 -15.91244,31.47651c-12.87938,0.74123 -52.13006,2.27099 -73.08756,2.52349c-4.11371,15.40993 -3.25901,14.89711 -6,29c26.73,0.33 53.46,0.66 81,1c-4.83085,24.14925 -5.71895,28.51901 -7,34c-63.41245,0.80572 -76.57567,-0.224 -80,2c-2.32262,6.0289 -3.95894,11.48928 -3,18c1.71192,3.76399 1.71192,3.76399 5,6c15.92369,-0.22844 47.15229,-1.14004 74.60227,-3.21048c-8.96007,40.15154 -8.89907,36.78507 -9.60227,39.21048c-78.89882,1.14567 -86.70595,0.70818 -97,0c-9.2359,-35.26328 -9.4718,-36.52656 -9.71484,-37.82812c7.41159,-40.66716 13.20856,-74.33399 15.80179,-88.43238c-12.44942,-0.59419 -58.01695,0.2605 -70.08695,0.2605c-7.31311,-23.57864 -8.80343,-29.4487 -10,-34z" fill="#00C1D4" id="svg_4"/>
  <path d="m187,126.1355c0.92258,19.21951 1.45018,24.93361 1.76178,35.44648c-8.08948,-0.05623 -50.13476,0.75677 -63.76178,0.55352c2.42075,15.58265 4.79231,26.38699 5,27c73.47842,1.82614 73.34292,1.28413 77,3c2.57307,3.74838 7.08143,28.37408 8,32c-70.24171,0.28272 -95.19027,-0.32454 -120,-1c-15.0401,-48.73826 -15.35363,-49.85933 -15.67667,-51.01437c-3.01357,-11.0061 -4.71454,-20.04956 1.07511,-30.51297c5.15844,-7.40078 5.71531,-8.32891 6.28906,-9.28516c8.51857,-8.0581 21.51783,-6.80825 32.40234,-6.83203c65.84117,-0.19396 66.53084,0.08553 67.91016,0.64453z" fill="#7B62FE" id="svg_5"/>
  <path d="m388.3856,113.6144c-0.957,4.40522 -1.06244,8.37904 -1.51414,12.51414c7.26039,1.69294 82.73619,-1.17588 86,1c-4.74564,22.80909 -6.73733,28.62662 -9,33c-79.6293,0.91642 -81.81488,1 -84,1c-4.02156,20.95999 -4.02156,20.95999 -5,25c-10.89,0 -21.78,0 -33,0c3.52367,-21.10043 3.77151,-23.05048 4,-25c-3.12113,-3.12113 -6.98203,-2.48266 -11.1914,-2.6211c-71.78387,-0.41715 -80.29623,-0.40018 -88.8086,-0.3789c-6.12757,-20.55424 -7.24823,-25.12838 -9,-32c100.33338,-1.2396 108.6667,-1.12082 117,-1c0.84017,-6.64891 0.56285,-11.01124 1.08024,-12.99791l33.4339,1.48377z" fill="#7A61FE" id="svg_6"/>
  <path d="m239,424c13.33599,10.59583 16.63945,20.26049 18,29c-45.68532,-0.18131 -49.80073,-0.94682 -54,2c-2.46717,2.91575 -2.36111,6.30601 -2.25,10.03516c0.37693,2.96245 1.32214,4.70459 3.25,6.96484c49.16679,1.82785 50.90808,2.23436 53.76152,2.10298c-0.08401,2.81301 -0.76152,3.89702 -1.44121,6.58452c-5.05159,13.99917 -12.80576,21.25716 -26.32031,28.3125c-11.16068,5.05259 -23.79681,5.06493 -35.19922,0.80469c-13.51695,-6.33445 -22.74057,-15.32143 -28.73828,-28.99219c-3.95655,-11.06272 -3.39278,-25.10367 0.82031,-36.12109c10.83948,-21.6147 22.84523,-24.75179 29.45313,-26.94532c14.42996,-4.04123 30.10453,-2.0001 42.66406,6.25391z" fill="#00C0D4" id="svg_7"/>
  <path d="m446.08988,453.31654c2.54871,20.49656 -5.94551,33.20338 -8.83182,38.48026c-26.51957,-27.23742 -26.51957,-27.23742 -27.30469,-27.98975c-8.25939,-8.17362 -8.67089,-9.81881 -13.66579,-10.20077c-4.31114,-0.38196 -8.07748,2.03775 -9.02952,3.19052c-1.90409,2.30554 -2.32994,6.81773 -1.66797,10.94531c1.59221,4.89767 5.52919,9.05308 9.70774,11.83878c26.41494,23.19746 26.18766,22.28837 27.96023,24.21591c-1.86516,3.11037 -2.81782,3.93957 -5.6875,6.125c-13.94933,4.76193 -22.68756,4.24823 -23.58911,4.24731c-7.23685,-0.13099 -13.00635,-1.31171 -20.72339,-4.37231c-7.09821,-4.72823 -6.41492,-3.89993 -11,-8c-13.88228,-13.9955 -26.73889,-40.91043 -0.18936,-71.43311c43.72355,-41.1131 81.16032,5.12646 84.02118,22.95285zm-41.14262,-11.41597c-2.77943,8.16702 2.96821,3.43282 4.3108,4.89623c2.84801,3.69714 3.57264,6.11205 6,8c3.63633,0.60605 5.28315,0.47161 8.375,-1.5625c2.34666,-3.51998 2.3893,-5.26861 1.625,-9.4375c-2.23454,-3.85475 -4.77942,-7.19556 -9.07031,-8.75c-5.34135,-0.48742 -8.11918,-0.97137 -11.24049,6.85377z" fill="#7B62FE" id="svg_8"/>
  <path fill="#4E75B7" id="svg_9"/>
  <path fill="#00C1D4" id="svg_10"/>
  <path d="m424,500c2,1 2,1 2,1l-2,-1z" fill="#71DFEA" id="svg_14"/>
  <path fill="#00C1D4" id="svg_15"/>
  <path fill="#00C1D4" id="svg_16"/>
  <path fill="#00C1D4" id="svg_17"/>
  <path fill="#00C1D4" id="svg_18"/>
  <path fill="#00C1D4" id="svg_19"/>
  <path fill="#00C1D4" id="svg_20"/>
  <path fill="#00C0D4" opacity="NaN" d="m174.9999,430.57561" id="svg_23"/>
  <path fill="#2B5CAA" opacity="NaN" d="m523.97848,18.45698" id="svg_24"/>
  <path fill="#2B5CAA" id="svg_25"/>
  <path id="svg_11" fill="#2B5CAA" d="m602,21c4.24834,5.75581 4.7827,12.01669 4,19c-4.23465,17.84678 -21.98081,17.59882 -30.13672,17.60937c-24.32023,0.30391 -33.35655,-1.90324 -34.86328,0.39063c-20.97274,86.17138 -23.70046,99.47024 -26.84229,112.7102c-17.93889,87.89136 -18.34506,89.86792 -18.75122,91.84449c-21.59043,106.58759 -26.1292,118.81527 -35.40649,127.44531c-11.90871,12.5544 -22.19375,11.07619 -36.58203,12.28125c-268.18241,1.07366 -269.6168,2.08348 -274.41797,-2.28125c-4.36858,-20.79438 -4.36858,-20.79438 -4.42578,-22.625c0.54426,-4.31413 1.08099,-5.54878 4.42578,-8.375c244.45219,-0.0768 254.89174,2.39573 277,-8c13.48049,-4.76761 40.82132,-163.50627 43,-173c25.07192,-115.14484 29.46822,-135.46307 29.79443,-136.95682c2.84308,-12.97936 10.19393,-27.37026 17.20557,-29.04318c28.66667,-0.33333 57.33333,-0.66667 86,-1z"/>
 </g>

</svg>