<svg width="767" height="149" xmlns="http://www.w3.org/2000/svg" version="1.1">
    <g>
        <title>Layer 1</title>
        <path stroke="null" id="svg_1" fill="#2130B5"
            d="m303.27378,56.44028c12.31422,-0.19316 19.51528,-0.21298 20.87762,-0.2334c2.0984,3.03376 3.3301,6.9941 5.0485,10.73431c1.71841,3.74021 5.04698,12.56925 5.94084,14.03198c15.53857,-14.52774 20.21878,-20.45719 22.51217,-23.29217c30.57427,-0.1561 33.64971,-0.37801 40.67461,-0.10029c-32.35759,36.00535 -38.39739,42.42362 -39.62874,43.58601c22.22815,28.29483 28.01018,31.57366 29.07067,33.70579c-41.36845,0.30082 -34.33704,-0.20225 -45.83144,-0.35067c-7.88257,-12.1028 -6.24021,-9.75951 -10.21217,-15.73146c-14.49338,13.22875 -10.75507,13.69604 -19.06787,14c-35.13782,-0.03333 -37.17176,0.27199 -41.86728,-0.65591c24.3444,-21.74067 28.76645,-24.97445 36.83948,-32.3871c-6.26471,-13.80143 -20.4404,-38.2681 -22.57789,-42.82036c5.48963,-0.59746 12.47432,-0.44116 18.22151,-0.48673l-0.00002,0z" />
        <path id="svg_2" fill="#1D2DB4"
            d="m162.56731,36.18815c16.26738,8.21435 22.98669,22.17431 23.43269,30.81185c1.62944,25.50145 -7.91393,56.30683 -8.2605,57.7915c-0.7395,2.2085 -0.7395,2.2085 -2.7395,3.2085c-26.00785,0.03779 -28.1655,-0.10525 -34,0c-1.10077,-4.62848 -0.47333,-8.44857 0.65234,-13.01172c6.53851,-24.94618 7.42608,-24.94618 8.12281,-33.25455c-0.01623,-24.22576 -29.66194,-18.16904 -31.67178,-3.02196c-9.74168,31.83968 -8.45403,35.78705 -11.5073,50.41627c-13.34668,0.0148 -29.16852,-0.72574 -36.07666,-1.36692c1.36772,-10.64117 3.15669,-16.81421 4.27778,-25.32483c10.32608,-54.72869 15.65038,-54.43971 23.76495,-63.43628c17.54448,-16.81534 43.12407,-14.5322 64.00518,-2.81185z" />
        <path id="svg_3" fill="#A912CA"
            d="m99.93618,2.39893c9.2668,18.19702 10.29401,20.48972 12,24c-6.48902,2.75251 -8.8221,4.55986 -14.20313,7.98047c-9.12442,7.08925 -10.45834,8.15108 -11.79687,9.20703c-8.83593,7.8151 -10.66466,19.34071 -13.0625,30.375c-3.34086,15.03987 -5.27121,25.43951 -6.74634,35.9729c-2.74288,10.22322 -1.7084,15.05081 -7.19116,18.4646c-9.39356,1.60511 -17.37993,-1.74342 -25,-7c-9.28295,-7.30289 -14.76568,-15.38861 -17,-27c-2.01823,-8.41695 -2.59034,-17.42226 1.6687,-29.89795c4.25904,-12.47569 1.80154,-5.02002 4.3313,-13.10205c18.02037,-4.16135 18.58266,-5.07797 18.88281,-6.14844c4.41731,-15.26345 11.56393,-28.6708 25.65625,-37.09765c9.84808,-5.38571 20.58885,-7.63751 32.46094,-5.75391z" />
        <path stroke="null" id="svg_4" fill="#1D2DB2"
            d="m277.94363,65.49123c13.39034,14.2746 4.85493,29.89609 1.24611,34.74969c-25.6805,-0.46218 -70.96681,-4.07045 -68.57654,4.55237c-0.12804,8.48411 51.98899,7.77677 66.38254,7.88987c-1.54617,7.40017 -3.04,11.9369 -17.39848,17.26009c-39.05962,0.67809 -57.87836,-0.75211 -64.8941,-6.587c-18.85963,-12.63448 -4.89844,-47.71864 -0.29151,-52.80491c18.32846,-30.60819 69.31385,-23.27963 83.53198,-5.06011zm-61.70834,17.39314c9.04468,1.36132 27.42522,1.16376 40.18523,1.86307c4.24782,-15.91611 -37.71862,-19.51345 -40.18523,-1.86307z" />
        <path id="svg_5" fill="#404040"
            d="m528.02612,57.83203c26.90829,-0.0683 29.89997,-0.0053 33.14453,2.16797c-4,17 -3.48805,17.17065 -6,18c-43.53504,0.74292 -52.59761,-0.6038 -56.92491,2.31741c-1.68954,1.62176 -0.66565,4.52278 2.41297,5.68259c3.19384,1.93092 34.25185,0.05379 40.67696,-0.12026c1.83499,0.12026 2.51758,-0.22104 5.37083,0.43767c-0.90911,5.61265 -3.05577,11.39377 -5.53584,16.68259c-1.58476,1.58476 -3.22892,1.16427 -5.42798,1.20532c-31.46646,0.59536 -37.01919,0.69711 -42.57202,0.79468c-3.07167,1.6387 -3.92491,5.49584 -1.36519,7.70648c3.86189,1.00972 6.91074,0.55506 10.57686,0.5965c42.87433,0.53295 43.78382,0.54246 44.72087,0.55226c2.06746,0.14476 2.06746,0.14476 3.06746,1.14476c-0.1347,4.82868 -0.41033,13.41033 -4,17c-46.28533,0.44329 -47.51597,0.4608 -48.7839,0.47883c-8.3974,-0.02086 -16.94527,-0.68276 -23.48194,-6.49279c-5.20739,-6.63325 -6.29955,-8.52334 -6.01541,-19.91963c2.84387,-20.27001 3.69711,-26.584 16.34866,-38.97021c10.60377,-10.33843 39.50065,-9.25807 43.78806,-9.26417z" />
        <path id="svg_6" fill="#414141"
            d="m687.3473,56.90736c-3.98398,21.79974 -4.15,24.77 -5,28c11.88,-0.33 23.76,-0.66 36,-1c3.19773,-14.77607 4.74275,-20.90543 7,-27c4.26011,-0.81084 8.29015,-1.13515 12.625,-1.125c5.88682,0.10356 7.96417,0.38411 10.375,1.125c0.48764,5.75689 -0.38508,10.78923 -1.63281,16.34766c-14.36719,55.65234 -14.36719,55.65234 -16.36719,56.65234c-16.0886,0.03702 -18.54427,0.02055 -21,0c-1.25415,-3.58753 -0.73272,-6.00509 0.21484,-9.64062c2.73329,-10.48688 3.74391,-14.36438 4.78516,-18.35938c-11.88,0.33 -23.76,0.66 -36,1c-5,23 -5,23.49423 -6,26.49423c-4.82357,2.55678 -21.30938,0.62696 -22,0.50577c-2,-3 -2,-3 -1.60376,-6.06152c14.54068,-62.87013 15.20883,-64.74576 16.60376,-66.93848c6.81515,-2.04454 15.10735,-1.45108 22,0z" />
        <path id="svg_7" fill="#434242"
            d="m643.91008,62.08992c4.76787,4.63783 6.83446,7.85466 7.1875,14.5625c-0.1875,3.4375 -0.1875,3.4375 -2.1875,6.4375c-3.41598,0.65999 -6.90288,0.46296 -10.375,0.4375c-9.94444,0.05565 -9.45021,-1.5918 -13.3288,-3.5953c-9.80274,-4.20517 -16.5459,-5.02809 -17.38287,-5.02726c-18.1178,-2.13121 -23.84287,7.81611 -25.28833,9.87256c-5.55634,7.63352 -5.87276,15.2202 -1.6875,21.25c5.45288,5.45288 11.7598,7.76933 19.28974,7.81796c11.63454,0.15467 15.89829,-5.6436 17.71026,-7.34921c4.0762,-5.55699 23.07142,-2.89812 27.0625,-2.40625c-7.87054,18.11954 -11.49492,19.93173 -13.375,21c-10.54494,6.73272 -32.24828,6.74339 -36.65421,7.08563c-11.40077,0.01141 -23.9291,-1.84992 -32.9161,-9.80829c-5.96635,-6.27839 -8.14707,-12.43569 -8.42969,-21.02734c0.36535,-11.48656 2.89571,-20.43067 10.375,-29.25c9.49257,-10.62283 19.72993,-14.09319 31,-16c17.4694,-2.36903 36.1152,-3.27705 49,6z" />
        <path id="svg_8" fill="#3F3F3F"
            d="m400.208,59.66579c25.08,0 50.16,0 76,0c-1.29412,12.94118 -1.29412,12.94118 -2,16c-2.62723,1.31362 -4.72611,1.21254 -7.66406,1.31641c-13.47644,0.48326 -16.4061,0.5853 -19.33594,0.68359c-1.35602,3.9023 -2.46389,7.75113 -3.33203,11.78906c-8.50419,37.34161 -8.73579,41.15699 -9.32667,43.08807c-6.4471,2.36519 -23.17065,0.14676 -25.17065,-0.85324c0.42403,-6.5725 1.33987,-13.8577 2.76685,-20.27389c8.70693,-30.96841 9.38528,-33.35904 10.0625,-35.75c-20.15269,0.10551 -20.15269,0.10551 -21.68335,0.11353c-2.31665,-0.11353 -2.31665,-0.11353 -3.31665,-1.11353c0.46863,-5.43616 1.462,-9.61698 3,-15z" />
    </g>

</svg>